# xmcd
#
# Track frame offsets:
#	150
#	21535
#	43965
#	68048
#	98725
#	117287
#	146915
#	168354
#	188279
#	206532
#	232276
#	257129
#
# Disc length: 4440 seconds
# Revision: 0
# Processed by: cddbd v1.5.2PL0 Copyright (c) Steve Scherf et al.
# Submitted via: dBpowerAMP V12.0
#
DISCID=b011560c
DTITLE=Roland Van Campenhout - The Great Atomic Power
DYEAR=2005
DGENRE=Blues
TTITLE0=Back To Coal
TTITLE1=Secret Love
TTITLE2=The Truth
TTITLE3=Venezuela
TTITLE4=Walking In The Rain
TTITLE5=Cheri Bibi
TTITLE6=KQ 652 To Kisumu
TTITLE7=Jambo
TTITLE8=There's A Higher Power
TTITLE9=The Great Atomic Power
TTITLE10=There's A Higher Power (with the Stahere College Boys)
TTITLE11=DATA
EXTD=
EXTT0=
EXTT1=
EXTT2=
EXTT3=
EXTT4=
EXTT5=
EXTT6=
EXTT7=
EXTT8=
EXTT9=
EXTT10=
EXTT11=
PLAYORDER=
